<!-- Generated by IcoMoon.io -->
<svg version="1.1" xmlns="http://www.w3.org/2000/svg" width="32" height="32" viewBox="0 0 32 32">
<title>Checkbox-2</title>
<path fill="#f4f4fd" d="M22.921 8.979c0.329-0.289 0.766-0.449 1.22-0.445s0.889 0.169 1.212 0.462c0.324 0.293 0.512 0.691 0.524 1.11s-0.153 0.825-0.459 1.134l-9.31 10.748c-0.16 0.159-0.353 0.287-0.568 0.376s-0.447 0.136-0.682 0.14-0.469-0.036-0.687-0.117c-0.218-0.081-0.416-0.202-0.583-0.356l-6.174-5.699c-0.172-0.148-0.31-0.326-0.405-0.524s-0.147-0.412-0.151-0.629c-0.004-0.217 0.039-0.432 0.127-0.633s0.219-0.384 0.385-0.537c0.166-0.153 0.364-0.274 0.582-0.356s0.451-0.121 0.686-0.117c0.235 0.004 0.467 0.051 0.681 0.14s0.408 0.216 0.568 0.374l4.886 4.508 8.104-9.531c0.015-0.017 0.030-0.032 0.047-0.047h-0.002z"></path>
<path fill="none" stroke="#2e2f42" stroke-linejoin="miter" stroke-linecap="butt" stroke-miterlimit="4" stroke-width="2" d="M4 1h24c1.657 0 3 1.343 3 3v24c0 1.657-1.343 3-3 3h-24c-1.657 0-3-1.343-3-3v-24c0-1.657 1.343-3 3-3z"></path>
</svg>
