<!-- Generated by IcoMoon.io -->
<svg version="1.1" xmlns="http://www.w3.org/2000/svg" width="61" height="32" viewBox="0 0 61 32">
<title>Client2</title>
<path fill="#8e8f99" d="M29.86 7.976h-0.050c-0.076-0.005-0.153-0.006-0.229-0.008v0h-0.166c-0.144 0-0.292 0.004-0.438 0.011-0.011-0.001-0.022-0.001-0.033 0-1.325 0.075-2.624 0.406-3.824 0.976l-0.157 0.076v8.051l0.368-0.125c0.323-0.111 0.667-0.211 1.023-0.303 0.962-0.247 1.951-0.378 2.944-0.391v1.058c-0.132 0.001-0.259 0.005-0.387 0.011h-0.030c-0.764 0.042-1.523 0.158-2.265 0.348-0.94 0.235-1.846 0.588-2.698 1.051v-10.326c0.885-0.516 1.838-0.904 2.831-1.151 0.872-0.225 1.768-0.341 2.668-0.344h0.155c0.186 0.005 0.367 0.013 0.537 0.026 0.448 0.032 0.893 0.102 1.329 0.212v1.041c-0.424-0.099-0.854-0.164-1.288-0.194-0.009-0.001-0.018-0.002-0.026-0.002-0.090-0.008-0.18-0.015-0.263-0.015zM31.692 9.040c0.231 0.018 0.47 0.026 0.712 0.026 0.946-0.003 1.888-0.124 2.805-0.36 0.939-0.236 1.846-0.59 2.697-1.052v10.142c-0.885 0.516-1.838 0.903-2.831 1.151-0.872 0.224-1.768 0.339-2.668 0.343-0.682 0.006-1.362-0.075-2.024-0.239v-10.208c0.156 0.036 0.317 0.069 0.481 0.097 0.269 0.045 0.552 0.079 0.828 0.099zM36.853 9.119l-0.368 0.124c-0.338 0.114-0.68 0.215-1.023 0.306-0.999 0.257-2.026 0.388-3.057 0.392-0.24 0-0.461-0.006-0.674-0.020l-0.293-0.019v8.283l0.252 0.022c0.234 0.020 0.475 0.030 0.718 0.030 0.812-0.003 1.621-0.108 2.407-0.312 0.648-0.162 1.278-0.389 1.881-0.676l0.157-0.076v-8.054z"></path>
<path fill="#8e8f99" d="M24.632 22.259c-0.053-0.055-0.117-0.098-0.187-0.126s-0.146-0.042-0.222-0.039c-0.081-0.001-0.161 0.014-0.236 0.044-0.069 0.027-0.131 0.069-0.184 0.121s-0.092 0.116-0.119 0.185c-0.029 0.073-0.043 0.15-0.042 0.228v1.38c-0.003 0.097 0.015 0.194 0.054 0.283 0.033 0.071 0.080 0.134 0.138 0.185 0.055 0.046 0.12 0.080 0.19 0.098 0.067 0.019 0.136 0.028 0.206 0.029 0.077 0.001 0.153-0.016 0.223-0.048 0.069-0.030 0.131-0.074 0.184-0.128 0.051-0.054 0.092-0.116 0.12-0.185 0.029-0.070 0.044-0.144 0.044-0.22v-0.154h-0.361v0.123c0.001 0.042-0.006 0.084-0.021 0.123-0.012 0.029-0.030 0.056-0.052 0.078-0.022 0.018-0.048 0.032-0.075 0.040-0.024 0.008-0.050 0.012-0.075 0.013-0.032 0.004-0.065-0.001-0.095-0.014s-0.055-0.034-0.075-0.060c-0.034-0.055-0.051-0.12-0.048-0.185v-1.286c-0.002-0.071 0.013-0.142 0.044-0.206 0.019-0.029 0.045-0.052 0.076-0.067s0.066-0.020 0.1-0.016c0.031-0.001 0.062 0.005 0.090 0.019s0.052 0.034 0.071 0.059c0.040 0.053 0.061 0.118 0.060 0.185v0.119h0.357v-0.141c0.001-0.083-0.014-0.164-0.044-0.241-0.027-0.072-0.068-0.138-0.12-0.194z"></path>
<path fill="#8e8f99" d="M26.774 22.243c-0.115-0.097-0.26-0.151-0.41-0.152-0.073 0-0.146 0.013-0.215 0.039-0.070 0.025-0.135 0.063-0.19 0.113-0.060 0.054-0.107 0.12-0.14 0.193-0.036 0.084-0.054 0.175-0.052 0.267v1.323c-0.002 0.093 0.015 0.186 0.052 0.271 0.033 0.071 0.080 0.134 0.14 0.185 0.055 0.051 0.12 0.091 0.19 0.117 0.069 0.025 0.142 0.038 0.215 0.039s0.146-0.013 0.215-0.039c0.072-0.026 0.138-0.066 0.195-0.117s0.104-0.115 0.136-0.185c0.037-0.085 0.055-0.178 0.052-0.271v-1.323c0.002-0.092-0.016-0.183-0.052-0.267-0.032-0.073-0.078-0.139-0.136-0.193zM26.606 24.027c0.003 0.035-0.002 0.071-0.014 0.104s-0.032 0.063-0.058 0.088c-0.048 0.040-0.108 0.062-0.17 0.062s-0.122-0.022-0.17-0.062c-0.025-0.024-0.045-0.054-0.058-0.088s-0.017-0.069-0.014-0.104v-1.323c-0.003-0.035 0.002-0.071 0.014-0.104s0.032-0.063 0.058-0.088c0.048-0.040 0.108-0.062 0.17-0.062s0.122 0.022 0.17 0.062c0.025 0.024 0.045 0.054 0.058 0.088s0.017 0.069 0.014 0.104v1.323z"></path>
<path fill="#8e8f99" d="M29.588 24.618v-2.505h-0.347l-0.455 1.326h-0.006l-0.459-1.326h-0.343v2.505h0.358v-1.524h0.006l0.35 1.077h0.178l0.353-1.077h0.006v1.524h0.358z"></path>
<path fill="#8e8f99" d="M31.621 22.289c-0.055-0.062-0.125-0.109-0.202-0.137-0.084-0.027-0.171-0.040-0.259-0.039h-0.532v2.505h0.357v-0.978h0.184c0.111 0.005 0.222-0.018 0.322-0.068 0.081-0.045 0.149-0.111 0.196-0.191 0.041-0.067 0.069-0.141 0.082-0.218 0.014-0.094 0.020-0.19 0.019-0.285 0.003-0.12-0.008-0.241-0.035-0.358-0.024-0.087-0.069-0.166-0.132-0.23zM31.437 23.052c-0.002 0.045-0.013 0.090-0.033 0.13-0.020 0.038-0.053 0.069-0.092 0.088-0.053 0.024-0.111 0.034-0.168 0.031h-0.163v-0.852h0.184c0.055-0.003 0.111 0.008 0.161 0.031 0.037 0.021 0.066 0.054 0.084 0.092 0.020 0.044 0.030 0.091 0.031 0.14 0 0.053 0 0.108 0 0.166s0.004 0.118 0 0.172h-0.004z"></path>
<path fill="#8e8f99" d="M33.312 22.113h-0.293l-0.552 2.505h0.357l0.105-0.538h0.487l0.105 0.538h0.357l-0.566-2.505zM32.983 23.739l0.176-0.908h0.006l0.175 0.908h-0.357z"></path>
<path fill="#8e8f99" d="M35.618 23.622h-0.006l-0.539-1.509h-0.343v2.505h0.357v-1.506h0.007l0.545 1.506h0.336v-2.505h-0.357v1.509z"></path>
<path fill="#8e8f99" d="M37.799 22.113l-0.287 0.996h-0.007l-0.287-0.996h-0.378l0.49 1.446v1.059h0.357v-1.059l0.49-1.446h-0.378z"></path>
<path fill="#8e8f99" d="M23.636 25.325h0.172v0.483h0.117v-0.483h0.171v-0.099h-0.46v0.099z"></path>
<path fill="#8e8f99" d="M25.082 25.226l-0.225 0.582h0.124l0.048-0.132h0.232l0.050 0.132h0.127l-0.231-0.582h-0.124zM25.064 25.578l0.079-0.215 0.079 0.215h-0.158z"></path>
<path fill="#8e8f99" d="M26.512 25.593h0.134v0.075c-0.039 0.031-0.088 0.049-0.138 0.049-0.023 0.001-0.047-0.003-0.068-0.013s-0.040-0.024-0.055-0.043c-0.031-0.044-0.046-0.098-0.043-0.152 0-0.129 0.056-0.194 0.167-0.194 0.029-0.003 0.059 0.005 0.083 0.022s0.041 0.042 0.049 0.071l0.115-0.022c-0.025-0.114-0.107-0.171-0.247-0.171-0.075-0.002-0.148 0.025-0.203 0.075-0.029 0.029-0.052 0.064-0.066 0.103s-0.020 0.080-0.017 0.121c-0.003 0.080 0.023 0.158 0.075 0.218 0.028 0.029 0.063 0.052 0.101 0.067s0.079 0.021 0.12 0.018c0.091 0.003 0.179-0.031 0.247-0.092v-0.229h-0.252v0.098z"></path>
<path fill="#8e8f99" d="M27.972 25.226h-0.118v0.582h0.407v-0.099h-0.29v-0.483z"></path>
<path fill="#8e8f99" d="M29.206 25.226h-0.118v0.582h0.118v-0.582z"></path>
<path fill="#8e8f99" d="M30.413 25.615l-0.238-0.388h-0.114v0.582h0.109v-0.38l0.234 0.38h0.117v-0.582h-0.108v0.388z"></path>
<path fill="#8e8f99" d="M31.504 25.552h0.29v-0.099h-0.29v-0.128h0.312v-0.099h-0.43v0.582h0.442v-0.099h-0.324v-0.157z"></path>
<path fill="#8e8f99" d="M34.15 25.456h-0.229v-0.229h-0.117v0.582h0.117v-0.254h0.229v0.254h0.117v-0.582h-0.117v0.229z"></path>
<path fill="#8e8f99" d="M35.247 25.552h0.291v-0.099h-0.291v-0.128h0.313v-0.099h-0.43v0.582h0.441v-0.099h-0.324v-0.157z"></path>
<path fill="#8e8f99" d="M36.736 25.552c0.101-0.016 0.153-0.069 0.153-0.162 0.003-0.025-0.001-0.050-0.011-0.073s-0.026-0.042-0.046-0.057c-0.053-0.026-0.111-0.038-0.17-0.034h-0.247v0.582h0.117v-0.243h0.023c0.025-0.002 0.050 0.003 0.073 0.013 0.017 0.011 0.031 0.025 0.041 0.043l0.127 0.185h0.14l-0.071-0.114c-0.031-0.056-0.075-0.104-0.129-0.14zM36.618 25.471h-0.086v-0.146h0.092c0.040-0.003 0.080 0.001 0.119 0.014 0.008 0.008 0.015 0.017 0.020 0.027s0.007 0.022 0.006 0.033c-0 0.011-0.004 0.022-0.009 0.032s-0.013 0.019-0.022 0.025c-0.039 0.012-0.079 0.016-0.119 0.014z"></path>
<path fill="#8e8f99" d="M37.858 25.552h0.289v-0.099h-0.289v-0.128h0.313v-0.099h-0.431v0.582h0.441v-0.099h-0.324v-0.157z"></path>
</svg>
